HIERARCHY
ROOT joint_0
{
	OFFSET 0.000000 0.000000 0.000000
	CHANNELS 6 Xposition Yposition Zposition Zrotation Yrotation Xrotation 
	JOINT joint_1
	{
		OFFSET 6.004005 -1.946999 100.587036
		CHANNELS 3 Zrotation Yrotation Xrotation
		JOINT joint_2
		{
			OFFSET -4.601006 -0.824997 91.925903
			CHANNELS 3 Zrotation Yrotation Xrotation
			JOINT joint_3
			{
				OFFSET -5.420998 -1.130005 91.774048
				CHANNELS 3 Zrotation Yrotation Xrotation
				JOINT joint_4
				{
					OFFSET 4.308998 -3.777992 123.473999
					CHANNELS 3 Zrotation Yrotation Xrotation
					JOINT joint_5
					{
						OFFSET 25.565002 -6.305008 79.437988
						CHANNELS 3 Zrotation Yrotation Xrotation
						End Site
						{
							OFFSET 0.000000 0.000000 0.000000
						}
					}
				}
				JOINT joint_6
				{
					OFFSET -1.750000 -28.655998 68.557983
					CHANNELS 3 Zrotation Yrotation Xrotation
					JOINT joint_7
					{
						OFFSET -17.692001 -116.544006 -17.244019
						CHANNELS 3 Zrotation Yrotation Xrotation
						JOINT joint_8
						{
							OFFSET 27.063004 -23.640991 -266.895020
							CHANNELS 3 Zrotation Yrotation Xrotation
							JOINT joint_9
							{
								OFFSET 40.722000 -15.761017 -232.488953
								CHANNELS 3 Zrotation Yrotation Xrotation
								End Site
								{
									OFFSET 0.000000 0.000000 0.000000
								}
							}
						}
					}
				}
				JOINT joint_10
				{
					OFFSET 6.593002 24.457001 69.892944
					CHANNELS 3 Zrotation Yrotation Xrotation
					JOINT joint_11
					{
						OFFSET 24.311996 114.920002 -19.872925
						CHANNELS 3 Zrotation Yrotation Xrotation
						JOINT joint_12
						{
							OFFSET 21.081001 15.319000 -268.037964
							CHANNELS 3 Zrotation Yrotation Xrotation
							JOINT joint_13
							{
								OFFSET 27.794006 -8.947001 -234.744080
								CHANNELS 3 Zrotation Yrotation Xrotation
								End Site
								{
									OFFSET 0.000000 0.000000 0.000000
								}
							}
						}
					}
				}
			}
		}
	}
	JOINT joint_14
	{
		OFFSET -6.627998 -80.520004 -98.790039
		CHANNELS 3 Zrotation Yrotation Xrotation
		JOINT joint_15
		{
			OFFSET -43.638000 -13.751999 -502.538971
			CHANNELS 3 Zrotation Yrotation Xrotation
			JOINT joint_16
			{
				OFFSET -39.532999 -9.912994 -398.071007
				CHANNELS 3 Zrotation Yrotation Xrotation
				JOINT joint_17
				{
					OFFSET 174.940004 -34.660995 -75.688002
					CHANNELS 3 Zrotation Yrotation Xrotation
					End Site
					{
						OFFSET 0.000000 0.000000 0.000000
					}
				}
			}
		}
	}
	JOINT joint_18
	{
		OFFSET 12.591003 79.842003 -98.765015
		CHANNELS 3 Zrotation Yrotation Xrotation
		JOINT joint_19
		{
			OFFSET -39.080002 -1.297001 -503.101013
			CHANNELS 3 Zrotation Yrotation Xrotation
			JOINT joint_20
			{
				OFFSET -51.570000 -0.514000 -396.815987
				CHANNELS 3 Zrotation Yrotation Xrotation
				JOINT joint_21
				{
					OFFSET 178.987999 -11.521999 -73.244003
					CHANNELS 3 Zrotation Yrotation Xrotation
					End Site
					{
						OFFSET 0.000000 0.000000 0.000000
					}
				}
			}
		}
	}
}
MOTION
Frames: 15
Frame Time: 0.016667
-2283.364258 893.655945 1087.447021 -1.298189 1.034285 -1.692471 1.044554 2.027088 1.090547 1.955089 -0.372218 -0.184678 2.136749 0.373341 0.036703 -0.094693 -2.123091 -0.224800 0.000000 0.000000 0.000000 -0.283618 6.620983 -0.226163 -0.317896 6.324616 1.296348 -0.453709 -1.151579 -2.950518 0.000000 0.000000 0.000000 2.943082 4.597741 3.035795 -0.127983 4.929932 -0.930306 0.653417 1.509171 6.441518 0.000000 0.000000 0.000000 -1.024309 2.259158 3.053358 -0.194225 9.986167 1.549680 -0.011613 -6.424751 -1.263242 0.000000 0.000000 0.000000 6.373979 -29.317674 -0.068800 0.138158 57.482076 11.945030 3.800631 5.483895 1.539619 0.000000 0.000000 0.000000 
-2272.159912 892.836548 1086.369019 -1.328364 1.270403 -1.781915 0.985969 2.200217 1.286517 2.013830 -0.433403 -0.232159 2.228887 0.452279 0.074996 -0.085547 -2.269175 -0.287875 0.000000 0.000000 0.000000 -0.322551 6.550896 -0.170291 -0.364238 6.324723 0.865511 -0.430538 -1.460749 -2.943436 0.000000 0.000000 0.000000 2.851641 4.530425 2.726086 -0.131686 4.761935 -0.703708 0.657692 1.707654 6.550742 0.000000 0.000000 0.000000 -1.140815 2.637927 3.169377 -0.166552 10.028318 1.542684 0.002481 -6.456315 -1.264051 0.000000 0.000000 0.000000 6.521760 -30.852178 -0.433144 -0.055844 57.253113 11.789938 3.198027 4.273025 1.262895 0.000000 0.000000 0.000000 
-2260.736328 892.658630 1085.504028 -1.304468 1.449754 -1.839323 0.955132 2.415691 1.511325 2.082292 -0.469633 -0.278637 2.315932 0.503853 0.108567 -0.076006 -2.436538 -0.358092 0.000000 0.000000 0.000000 -0.332046 6.455663 -0.204464 -0.403797 6.278770 0.529507 -0.431519 -1.563239 -2.984249 0.000000 0.000000 0.000000 2.785658 4.363733 2.501866 -0.153258 4.568845 -0.747447 0.664106 1.960514 6.721074 0.000000 0.000000 0.000000 -1.189644 2.875058 3.232311 -0.178845 10.534341 1.518241 -0.014427 -6.576603 -1.295141 0.000000 0.000000 0.000000 6.344063 -31.952659 -0.837905 -0.313462 55.411092 11.491369 2.222044 3.043096 0.872427 0.000000 0.000000 0.000000 
-2249.048340 892.995605 1084.828003 -1.225842 1.592668 -1.874687 0.970662 2.677701 1.775918 2.152572 -0.501738 -0.334549 2.391980 0.538624 0.140283 -0.067853 -2.630053 -0.431477 0.000000 0.000000 0.000000 -0.323054 6.339159 -0.291581 -0.440053 6.200701 0.250655 -0.449525 -1.517795 -3.057888 0.000000 0.000000 0.000000 2.735445 4.108859 2.323116 -0.189276 4.339763 -0.992755 0.671038 2.261331 6.936829 0.000000 0.000000 0.000000 -1.187628 3.037885 3.263003 -0.227247 11.311798 1.469528 -0.055283 -6.694963 -1.335765 0.000000 0.000000 0.000000 5.785670 -32.562149 -1.169147 -0.682800 51.763890 10.934257 0.901420 1.906009 0.371135 0.000000 0.000000 0.000000 
-2236.905029 893.734375 1084.032959 -1.167383 1.702466 -1.864723 1.032485 2.946729 2.006226 2.217040 -0.530890 -0.393285 2.452052 0.567814 0.166666 -0.068017 -2.815116 -0.478162 0.000000 0.000000 0.000000 -0.286526 6.237696 -0.396386 -0.473549 6.131824 0.027301 -0.467744 -1.502761 -3.143936 0.000000 0.000000 0.000000 2.691452 3.858875 2.206573 -0.216519 4.150433 -1.336954 0.676067 2.383545 7.065520 0.000000 0.000000 0.000000 -1.138795 3.058993 3.231580 -0.303537 12.513434 1.411489 -0.121367 -6.908181 -1.405096 0.000000 0.000000 0.000000 4.975682 -32.778597 -1.354089 -1.152542 47.182193 9.957130 -0.521650 1.270104 -0.148618 0.000000 0.000000 0.000000 
-2224.202637 894.839172 1082.963013 -1.103441 1.839798 -1.714774 1.136962 3.101871 2.013816 2.246151 -0.506257 -0.382953 2.450277 0.597672 0.191383 -0.084117 -2.979953 -0.471716 0.000000 0.000000 0.000000 -0.210798 6.173659 -0.503583 -0.503788 6.096045 -0.129618 -0.477518 -1.627431 -3.238542 0.000000 0.000000 0.000000 2.651221 3.665883 2.188661 -0.219824 4.055978 -1.753302 0.677531 2.150170 7.001820 0.000000 0.000000 0.000000 -1.070701 2.829721 3.047936 -0.446061 14.255999 1.347479 -0.255480 -7.283276 -1.533025 0.000000 0.000000 0.000000 3.893188 -32.722057 -1.415740 -1.785438 41.914652 8.292181 -2.045756 1.151721 -0.690372 0.000000 0.000000 0.000000 
-2211.013672 896.353333 1081.737061 -1.145492 1.948387 -1.479811 1.310444 3.274115 1.909483 2.292434 -0.486881 -0.350299 2.459649 0.623422 0.213347 -0.113731 -3.134397 -0.422129 0.000000 0.000000 0.000000 -0.099352 6.134475 -0.625629 -0.530766 6.078717 -0.221171 -0.485497 -1.825482 -3.350437 0.000000 0.000000 0.000000 2.615448 3.497445 2.255353 -0.209252 4.026991 -2.272610 0.675210 1.647510 6.791086 0.000000 0.000000 0.000000 -0.954615 2.427586 2.753923 -0.601204 16.468957 1.249970 -0.406656 -7.694834 -1.675262 0.000000 0.000000 0.000000 2.475895 -32.152509 -1.243917 -2.636854 35.210532 6.024329 -3.580514 1.975571 -1.195874 0.000000 0.000000 0.000000 
-2197.234863 898.114990 1080.131958 -1.415639 1.875287 -1.363100 1.498997 3.660241 2.007360 2.398854 -0.590646 -0.436903 2.567950 0.660327 0.216529 -0.142083 -3.243902 -0.365464 0.000000 0.000000 0.000000 0.013864 6.116093 -0.718091 -0.558814 6.085348 -0.307458 -0.482783 -2.127124 -3.444092 0.000000 0.000000 0.000000 2.568687 3.385928 2.299927 -0.183050 4.033796 -2.712054 0.670078 1.013163 6.505056 0.000000 0.000000 0.000000 -0.743457 2.033927 2.512735 -0.639813 19.090852 1.165364 -0.458861 -7.985642 -1.756169 0.000000 0.000000 0.000000 1.256275 -31.126254 -0.966693 -3.347998 29.000842 4.221959 -4.492189 3.810095 -1.420390 0.000000 0.000000 0.000000 
-2182.552490 900.014221 1077.776001 -1.625214 1.667299 -1.313399 1.614819 4.036593 2.130900 2.448747 -0.725286 -0.519765 2.624620 0.716780 0.194578 -0.158357 -3.267779 -0.324093 0.000000 0.000000 0.000000 0.102545 6.133622 -0.739397 -0.592293 6.142060 -0.446340 -0.458591 -2.598067 -3.486143 0.000000 0.000000 0.000000 2.484715 3.394718 2.264307 -0.129167 4.102915 -2.938091 0.661517 0.203380 6.128068 0.000000 0.000000 0.000000 -0.468913 1.694147 2.281097 -0.585042 22.023040 1.170248 -0.412413 -8.085133 -1.763520 0.000000 0.000000 0.000000 0.595501 -30.098859 -1.095379 -3.581842 25.503109 3.556224 -4.637821 5.579379 -1.364962 0.000000 0.000000 0.000000 
-2167.000977 902.115601 1074.755005 -1.600826 1.440654 -1.148249 1.657337 4.208881 1.955460 2.376795 -0.788720 -0.437602 2.527607 0.788188 0.159898 -0.167331 -3.218541 -0.286393 0.000000 0.000000 0.000000 0.178366 6.186593 -0.702191 -0.630254 6.246472 -0.621461 -0.416707 -3.226054 -3.487990 0.000000 0.000000 0.000000 2.367214 3.512300 2.176979 -0.050905 4.242250 -3.009709 0.645636 -0.835015 5.634603 0.000000 0.000000 0.000000 -0.171393 1.306665 1.886963 -0.532206 25.246056 1.300251 -0.326026 -7.979215 -1.720221 0.000000 0.000000 0.000000 0.264066 -29.172584 -1.747583 -3.467361 24.117693 3.562690 -4.368327 6.812635 -1.188457 0.000000 0.000000 0.000000 
-2151.690918 904.421875 1072.051025 -1.538332 1.200322 -0.880017 1.695156 4.361729 1.659323 2.270323 -0.826549 -0.333117 2.388692 0.862118 0.116553 -0.176830 -3.153447 -0.242653 0.000000 0.000000 0.000000 0.257688 6.195828 -0.650332 -0.666075 6.303826 -0.751388 -0.377601 -3.821230 -3.486631 0.000000 0.000000 0.000000 2.276351 3.544459 2.020229 0.009597 4.259874 -3.012536 0.634768 -1.521471 5.334749 0.000000 0.000000 0.000000 0.141412 0.629932 1.268945 -0.551426 28.956031 1.684139 -0.284894 -7.588092 -1.645060 0.000000 0.000000 0.000000 0.062197 -28.311795 -2.561334 -3.213839 23.767138 3.796862 -3.977116 7.299730 -1.012041 0.000000 0.000000 0.000000 
-2137.396484 907.034424 1070.288940 -1.615988 0.929262 -0.475234 1.801879 4.652614 1.303050 2.200777 -0.880788 -0.280662 2.291419 0.936393 0.065080 -0.193824 -3.110787 -0.181240 0.000000 0.000000 0.000000 0.351369 6.091765 -0.599217 -0.697283 6.242344 -0.822363 -0.350938 -4.232869 -3.482029 0.000000 0.000000 0.000000 2.265340 3.330598 1.752891 0.019150 3.986327 -3.001181 0.646639 -1.320630 5.512820 0.000000 0.000000 0.000000 0.519110 -0.516620 0.326902 -0.629166 33.378664 2.396767 -0.317546 -6.692471 -1.506223 0.000000 0.000000 0.000000 -0.090746 -27.515380 -3.360380 -2.918599 24.006103 4.068894 -3.596908 6.789452 -0.899652 0.000000 0.000000 0.000000 
-2123.693848 909.955444 1069.093018 -1.784570 0.624988 0.132629 1.981429 5.019949 0.687486 2.132906 -0.937740 -0.154919 2.180226 1.012641 0.001966 -0.216886 -3.073135 -0.102214 0.000000 0.000000 0.000000 0.453263 5.905005 -0.532299 -0.725315 6.097781 -0.865123 -0.328488 -4.532252 -3.458620 0.000000 0.000000 0.000000 2.316168 2.946975 1.375796 -0.013802 3.491898 -2.936234 0.673551 -0.450608 6.051559 0.000000 0.000000 0.000000 0.994929 -2.008978 -0.996252 -0.693801 38.333356 3.370139 -0.358291 -5.080236 -1.238845 0.000000 0.000000 0.000000 -0.103214 -26.782386 -4.337055 -2.479420 25.211994 4.497593 -3.100674 5.372954 -0.799640 0.000000 0.000000 0.000000 
-2110.414795 912.724304 1068.578003 -2.065217 0.364690 0.770424 2.235438 5.354253 0.032598 2.063673 -0.982970 -0.021977 2.060240 1.065581 -0.066779 -0.230887 -3.017427 -0.046269 0.000000 0.000000 0.000000 0.549151 5.718748 -0.514516 -0.736125 5.909537 -0.689598 -0.324052 -4.833872 -3.533886 0.000000 0.000000 0.000000 2.363758 2.538487 1.050092 -0.053122 2.973824 -2.830762 0.693368 0.422792 6.556594 0.000000 0.000000 0.000000 1.422006 -3.777172 -2.470695 -0.782913 43.301520 4.387139 -0.582334 -2.946813 -0.940815 0.000000 0.000000 0.000000 -0.157643 -25.969488 -5.197344 -2.023624 26.238033 4.778507 -2.588370 3.974976 -0.694316 0.000000 0.000000 0.000000 
-2097.500000 915.042908 1068.890991 -2.505036 0.224753 1.343227 2.576750 5.526881 -0.538572 2.003178 -0.979510 0.070758 1.945876 1.075091 -0.139825 -0.228248 -2.923220 -0.031955 0.000000 0.000000 0.000000 0.653098 5.593582 -0.599147 -0.716688 5.699152 -0.093502 -0.357480 -5.197420 -3.839237 0.000000 0.000000 0.000000 2.365934 2.189276 0.908339 -0.064955 2.563230 -2.716228 0.699480 0.872544 6.779055 0.000000 0.000000 0.000000 1.643990 -5.953711 -3.998355 -0.972038 48.249728 5.247858 -1.401025 -0.350943 -0.765539 0.000000 0.000000 0.000000 -0.398601 -25.005815 -5.747076 -1.633495 26.285374 4.681703 -2.136249 3.108715 -0.580126 0.000000 0.000000 0.000000 
